<svg width="533" height="533" viewBox="0 0 533 533" fill="none" xmlns="http://www.w3.org/2000/svg">
<path d="M484.477 266.128C484.477 387.63 385.98 486.128 264.477 486.128C142.974 486.128 44.4771 387.63 44.4771 266.128C44.4771 144.625 142.974 46.1279 264.477 46.1279C385.98 46.1279 484.477 144.625 484.477 266.128Z" fill="#010304"/>
<circle cx="264.477" cy="266.128" r="178.948" fill="url(#paint0_radial_604_4)"/>
<path fill-rule="evenodd" clip-rule="evenodd" d="M264.477 459.523C371.286 459.523 457.872 372.937 457.872 266.128C457.872 159.318 371.286 72.7324 264.477 72.7324C157.668 72.7324 71.0815 159.318 71.0815 266.128C71.0815 372.937 157.668 459.523 264.477 459.523ZM264.477 462.523C372.943 462.523 460.872 374.594 460.872 266.128C460.872 157.662 372.943 69.7324 264.477 69.7324C156.011 69.7324 68.0815 157.662 68.0815 266.128C68.0815 374.594 156.011 462.523 264.477 462.523Z" fill="#ECEDEF"/>
<path d="M164.822 162.686L144.029 199.446C143.529 200.429 143.296 201.525 143.353 202.624C143.41 203.724 143.755 204.79 144.354 205.717C144.954 206.644 145.787 207.401 146.772 207.913C147.756 208.425 148.858 208.674 149.97 208.636L214.947 205.236C217.262 205.151 219.528 204.544 221.571 203.461C223.614 202.378 225.38 200.848 226.735 198.987L253.19 162.227C253.691 161.464 253.975 160.583 254.012 159.674C254.049 158.765 253.838 157.864 253.401 157.064C252.964 156.264 252.317 155.596 251.528 155.13C250.74 154.664 249.839 154.417 248.92 154.415H179.302C176.369 154.422 173.489 155.19 170.949 156.641C168.409 158.092 166.296 160.176 164.822 162.686Z" fill="#0997D6"/>
<path d="M288.109 203.524C292.101 203.524 294.329 201.318 292.101 198.193L267.41 161.433C266.989 160.845 266.433 160.366 265.787 160.035C265.141 159.704 264.424 159.531 263.697 159.531C262.969 159.531 262.252 159.704 261.606 160.035C260.96 160.366 260.404 160.845 259.984 161.433L235.478 198.193C233.25 201.318 235.478 203.524 239.655 203.524H288.109Z" fill="#7EC2EC"/>
<path d="M378.984 207.441C380.096 207.479 381.198 207.23 382.182 206.718C383.167 206.206 384 205.45 384.599 204.522C385.199 203.595 385.544 202.529 385.601 201.43C385.658 200.33 385.425 199.235 384.925 198.251L364.689 162.686C363.244 160.171 361.151 158.08 358.624 156.627C356.096 155.174 353.224 154.411 350.302 154.415H280.127C279.208 154.417 278.307 154.664 277.518 155.13C276.73 155.596 276.083 156.264 275.646 157.064C275.208 157.864 274.997 158.765 275.034 159.674C275.072 160.583 275.356 161.464 275.857 162.227L299.712 198.068C301.031 199.965 302.789 201.523 304.84 202.61C306.891 203.697 309.175 204.282 311.501 204.317L378.984 207.441Z" fill="#0084C8"/>
<path d="M276.519 377.123L384.677 222.966C385.22 222.215 385.539 221.336 385.599 220.423C385.659 219.51 385.458 218.598 385.018 217.788C384.578 216.977 383.915 216.298 383.102 215.824C382.289 215.351 381.357 215.101 380.407 215.101H318.122C315.976 215.051 313.879 215.718 312.186 216.989C310.494 218.26 309.311 220.056 308.84 222.072L271.135 375.246C269.928 378.285 275.591 378.285 276.519 377.123Z" fill="#207CC1"/>
<path d="M266.482 376.06L297.3 224.129C297.458 223.025 297.37 221.901 297.043 220.832C296.716 219.763 296.156 218.773 295.401 217.928C294.646 217.083 293.714 216.402 292.665 215.931C291.616 215.459 290.475 215.207 289.317 215.192H240.77C239.613 215.207 238.472 215.459 237.423 215.931C236.374 216.402 235.441 217.083 234.686 217.928C233.931 218.773 233.372 219.763 233.044 220.832C232.717 221.901 232.629 223.025 232.787 224.129L263.976 376.06C264.052 376.324 264.215 376.557 264.441 376.723C264.668 376.89 264.945 376.98 265.229 376.98C265.514 376.98 265.791 376.89 266.017 376.723C266.244 376.557 266.407 376.324 266.482 376.06Z" fill="#217BC1"/>
<path d="M254.746 377.044C255.489 378.116 260.594 378.204 259.852 375.076L219.937 222.073C219.466 220.057 218.283 218.261 216.591 216.99C214.898 215.719 212.801 215.052 210.655 215.102H148.741C147.791 215.102 146.859 215.352 146.046 215.825C145.233 216.299 144.571 216.978 144.13 217.789C143.69 218.599 143.489 219.511 143.549 220.424C143.61 221.337 143.928 222.216 144.471 222.967L254.746 377.044Z" fill="#7EC1EB"/>
<path d="M466.635 239.507L475.91 238.095L475.34 234.351L477.847 233.97L479.455 244.532L476.948 244.913L476.378 241.17L467.103 242.582L466.635 239.507Z" fill="#2C4465"/>
<path d="M467.871 253.021C467.75 251.821 467.895 250.742 468.308 249.782C468.733 248.833 469.38 248.06 470.248 247.462C471.116 246.864 472.161 246.504 473.384 246.38C474.617 246.255 475.713 246.393 476.671 246.795C477.641 247.206 478.425 247.84 479.021 248.698C479.618 249.555 479.977 250.583 480.099 251.783C480.22 252.982 480.074 254.056 479.66 255.004C479.248 255.964 478.607 256.742 477.739 257.34C476.882 257.936 475.836 258.297 474.603 258.422C473.381 258.546 472.285 258.402 471.314 257.991C470.344 257.579 469.555 256.945 468.947 256.089C468.351 255.244 467.993 254.221 467.871 253.021ZM470.461 252.759C470.55 253.633 470.928 254.286 471.594 254.717C472.273 255.158 473.168 255.322 474.278 255.21C475.388 255.097 476.226 254.763 476.793 254.207C477.36 253.652 477.598 252.931 477.508 252.045C477.419 251.159 477.041 250.501 476.374 250.07C475.707 249.639 474.819 249.48 473.709 249.592C472.599 249.705 471.755 250.039 471.177 250.596C470.61 251.152 470.372 251.873 470.461 252.759Z" fill="#2C4465"/>
<path d="M468.277 260.452L480.187 260.029L480.268 262.31L473.637 268.026L480.462 267.784L480.564 270.656L468.654 271.078L468.573 268.814L475.204 263.099L468.379 263.341L468.277 260.452Z" fill="#2C4465"/>
<path d="M468.242 272.952L480.156 273.261L479.938 281.676L477.538 281.614L477.679 276.173L475.415 276.114L475.284 281.167L472.884 281.105L473.015 276.052L470.565 275.988L470.424 281.43L468.024 281.368L468.242 272.952Z" fill="#2C4465"/>
<path d="M467.728 281.953L473.365 286.98L479.6 282.999L479.314 286.588L475.467 288.91L478.899 291.812L478.612 295.418L473.085 290.502L466.725 294.558L467.012 290.951L470.968 288.553L467.441 285.559L467.728 281.953Z" fill="#2C4465"/>
<path d="M426.984 388.344L434.561 393.876L436.794 390.818L438.842 392.313L432.542 400.942L430.494 399.447L432.727 396.388L425.15 390.856L426.984 388.344Z" fill="#2C4465"/>
<path d="M418.274 398.86C419.034 397.923 419.898 397.26 420.867 396.871C421.838 396.497 422.842 396.405 423.879 396.593C424.916 396.781 425.911 397.263 426.865 398.036C427.828 398.817 428.508 399.688 428.904 400.648C429.302 401.624 429.411 402.626 429.23 403.655C429.048 404.683 428.578 405.666 427.818 406.602C427.059 407.539 426.198 408.197 425.236 408.578C424.267 408.967 423.264 409.068 422.227 408.879C421.198 408.698 420.203 408.217 419.24 407.436C418.286 406.662 417.61 405.787 417.212 404.811C416.814 403.835 416.701 402.829 416.873 401.794C417.048 400.774 417.514 399.796 418.274 398.86ZM420.296 400.5C419.742 401.183 419.55 401.912 419.719 402.687C419.889 403.479 420.408 404.226 421.274 404.929C422.141 405.632 422.971 405.986 423.765 405.991C424.558 405.997 425.236 405.654 425.797 404.962C426.357 404.271 426.553 403.537 426.384 402.762C426.215 401.986 425.698 401.247 424.831 400.544C423.965 399.841 423.13 399.483 422.328 399.471C421.534 399.465 420.857 399.808 420.296 400.5Z" fill="#2C4465"/>
<path d="M413.204 404.521L421.948 412.619L420.397 414.294L411.665 413.672L416.676 418.312L414.723 420.421L405.979 412.323L407.518 410.661L416.25 411.283L411.24 406.642L413.204 404.521Z" fill="#2C4465"/>
<path d="M404.28 413.414L412.505 422.038L406.413 427.848L404.756 426.111L408.695 422.354L407.132 420.715L403.474 424.203L401.817 422.466L405.475 418.978L403.783 417.204L399.844 420.961L398.188 419.224L404.28 413.414Z" fill="#2C4465"/>
<path d="M397.752 419.254L398.216 426.793L405.447 428.355L402.717 430.703L398.35 429.644L398.745 434.121L396.002 436.48L395.538 429.097L388.166 427.5L390.909 425.141L395.406 426.222L395.009 421.613L397.752 419.254Z" fill="#2C4465"/>
<path d="M293.792 465.961L295.276 475.225L299.015 474.626L299.416 477.13L288.866 478.819L288.465 476.316L292.204 475.717L290.721 466.453L293.792 465.961Z" fill="#2C4465"/>
<path d="M279.384 467.339C280.583 467.213 281.663 467.355 282.624 467.764C283.575 468.185 284.351 468.829 284.952 469.695C285.553 470.561 285.918 471.604 286.046 472.826C286.176 474.059 286.042 475.155 285.644 476.115C285.236 477.087 284.605 477.873 283.75 478.473C282.896 479.073 281.869 479.436 280.669 479.562C279.47 479.688 278.396 479.546 277.446 479.136C276.485 478.727 275.704 478.089 275.103 477.223C274.503 476.369 274.139 475.325 274.009 474.092C273.88 472.87 274.02 471.773 274.428 470.801C274.835 469.829 275.466 469.038 276.32 468.427C277.163 467.828 278.185 467.466 279.384 467.339ZM279.656 469.928C278.782 470.02 278.131 470.401 277.702 471.069C277.264 471.75 277.103 472.645 277.22 473.754C277.337 474.864 277.674 475.701 278.232 476.265C278.79 476.83 279.512 477.066 280.397 476.973C281.282 476.88 281.939 476.499 282.368 475.831C282.796 475.162 282.952 474.273 282.835 473.164C282.718 472.054 282.381 471.211 281.821 470.636C281.263 470.071 280.542 469.835 279.656 469.928Z" fill="#2C4465"/>
<path d="M271.817 467.731L272.24 479.642L269.959 479.723L264.243 473.092L264.485 479.917L261.613 480.019L261.191 468.108L263.455 468.028L269.17 474.659L268.928 467.834L271.817 467.731Z" fill="#2C4465"/>
<path d="M259.248 467.695L258.939 479.608L250.524 479.39L250.586 476.991L256.027 477.132L256.086 474.867L251.033 474.736L251.096 472.337L256.148 472.468L256.212 470.017L250.77 469.876L250.833 467.477L259.248 467.695Z" fill="#2C4465"/>
<path d="M250.497 467.196L245.491 472.853L249.496 479.072L245.906 478.801L243.568 474.962L240.68 478.405L237.073 478.132L241.968 472.586L237.888 466.242L241.495 466.515L243.909 470.461L246.889 466.923L250.497 467.196Z" fill="#2C4465"/>
<path d="M140.896 424.087L135.227 431.563L138.244 433.851L136.712 435.871L128.199 429.415L129.732 427.395L132.749 429.683L138.418 422.208L140.896 424.087Z" fill="#2C4465"/>
<path d="M130.566 415.201C131.489 415.977 132.136 416.854 132.507 417.829C132.863 418.807 132.938 419.812 132.731 420.846C132.523 421.879 132.024 422.866 131.233 423.806C130.435 424.754 129.552 425.418 128.585 425.797C127.602 426.177 126.598 426.267 125.573 426.067C124.548 425.867 123.574 425.379 122.651 424.603C121.729 423.826 121.086 422.953 120.723 421.985C120.351 421.009 120.269 420.004 120.476 418.971C120.676 417.946 121.175 416.959 121.974 416.011C122.765 415.071 123.652 414.411 124.635 414.031C125.618 413.65 126.626 413.556 127.658 413.747C128.674 413.94 129.644 414.424 130.566 415.201ZM128.89 417.192C128.217 416.626 127.492 416.421 126.713 416.575C125.919 416.732 125.162 417.237 124.444 418.09C123.725 418.944 123.356 419.767 123.336 420.561C123.316 421.354 123.647 422.038 124.328 422.611C125.009 423.184 125.739 423.394 126.517 423.239C127.296 423.084 128.045 422.58 128.763 421.726C129.482 420.873 129.854 420.045 129.881 419.243C129.901 418.449 129.571 417.766 128.89 417.192Z" fill="#2C4465"/>
<path d="M125.058 410.077L116.803 418.672L115.157 417.091L115.938 408.371L111.207 413.297L109.134 411.306L117.39 402.711L119.024 404.28L118.243 413L122.974 408.074L125.058 410.077Z" fill="#2C4465"/>
<path d="M116.35 401.011L107.577 409.077L101.879 402.88L103.646 401.255L107.33 405.262L108.998 403.729L105.577 400.008L107.344 398.384L110.765 402.105L112.569 400.446L108.885 396.438L110.652 394.814L116.35 401.011Z" fill="#2C4465"/>
<path d="M110.659 394.411L103.113 394.737L101.418 401.938L99.1206 399.165L100.26 394.818L95.7767 395.13L93.4683 392.345L100.858 392.017L102.59 384.675L104.899 387.461L103.735 391.938L108.351 391.626L110.659 394.411Z" fill="#2C4465"/>
<path d="M65.7859 289.06L56.4901 290.329L57.0021 294.081L54.4897 294.424L53.045 283.838L55.5573 283.495L56.0694 287.247L65.3653 285.978L65.7859 289.06Z" fill="#2C4465"/>
<path d="M64.7655 275.603C64.8685 276.805 64.7063 277.882 64.279 278.835C63.8395 279.777 63.181 280.541 62.3035 281.125C61.4261 281.709 60.3754 282.054 59.1515 282.159C57.9164 282.264 56.8229 282.109 55.871 281.693C54.907 281.267 54.1333 280.621 53.5501 279.754C52.9669 278.888 52.6238 277.854 52.5208 276.653C52.4178 275.451 52.5805 274.38 53.0087 273.438C53.4361 272.486 54.0885 271.717 54.9659 271.133C55.8321 270.55 56.8828 270.205 58.1179 270.099C59.3418 269.994 60.4358 270.155 61.3998 270.581C62.3639 271.008 63.1431 271.653 63.7376 272.519C64.3199 273.374 64.6625 274.402 64.7655 275.603ZM62.1717 275.826C62.0966 274.95 61.7291 274.291 61.0692 273.85C60.3971 273.399 59.5053 273.221 58.3936 273.316C57.282 273.411 56.4386 273.733 55.8634 274.28C55.2881 274.826 55.0385 275.544 55.1146 276.431C55.1906 277.318 55.5586 277.982 56.2185 278.423C56.8784 278.864 57.7642 279.037 58.8758 278.942C59.9874 278.846 60.8365 278.525 61.4229 277.977C61.9981 277.43 62.2477 276.713 62.1717 275.826Z" fill="#2C4465"/>
<path d="M64.465 267.433L52.5488 267.627L52.5117 265.345L59.2513 259.758L52.4227 259.869L52.376 256.995L64.2922 256.802L64.329 259.067L57.5895 264.654L64.418 264.543L64.465 267.433Z" fill="#2C4465"/>
<path d="M64.7323 255.05L52.8267 254.514L53.2056 246.104L55.6036 246.212L55.3586 251.65L57.6215 251.751L57.849 246.702L60.247 246.81L60.0195 251.86L62.4682 251.97L62.7132 246.532L65.1112 246.64L64.7323 255.05Z" fill="#2C4465"/>
<path d="M65.3303 246.918L59.7701 241.806L53.4754 245.692L53.8154 242.107L57.6979 239.844L54.3102 236.89L54.6518 233.289L60.1037 238.289L66.5242 234.33L66.1826 237.932L62.1912 240.27L65.6719 243.317L65.3303 246.918Z" fill="#2C4465"/>
<path d="M107.956 140.645L100.48 134.976L98.1923 137.993L96.1719 136.461L102.628 127.948L104.648 129.481L102.36 132.498L109.835 138.167L107.956 140.645Z" fill="#2C4465"/>
<path d="M116.773 130.367C115.996 131.289 115.12 131.937 114.144 132.308C113.167 132.664 112.162 132.738 111.128 132.531C110.094 132.324 109.108 131.825 108.168 131.034C107.22 130.236 106.556 129.353 106.177 128.386C105.797 127.402 105.706 126.398 105.906 125.373C106.106 124.348 106.594 123.375 107.371 122.452C108.148 121.53 109.02 120.887 109.989 120.524C110.965 120.152 111.969 120.07 113.003 120.277C114.028 120.477 115.015 120.976 115.963 121.774C116.903 122.565 117.563 123.453 117.943 124.436C118.323 125.419 118.418 126.426 118.227 127.459C118.034 128.475 117.549 129.444 116.773 130.367ZM114.781 128.69C115.347 128.018 115.553 127.292 115.398 126.514C115.242 125.719 114.737 124.963 113.884 124.244C113.03 123.526 112.207 123.157 111.413 123.137C110.619 123.117 109.936 123.448 109.363 124.129C108.789 124.81 108.58 125.54 108.735 126.318C108.89 127.097 109.394 127.845 110.247 128.564C111.101 129.282 111.929 129.655 112.731 129.682C113.524 129.702 114.208 129.371 114.781 128.69Z" fill="#2C4465"/>
<path d="M121.656 125.066L113.061 116.811L114.642 115.165L123.361 115.946L118.436 111.215L120.427 109.142L129.022 117.398L127.453 119.032L118.733 118.251L123.659 122.982L121.656 125.066Z" fill="#2C4465"/>
<path d="M130.818 116.206L122.752 107.433L128.95 101.735L130.574 103.502L126.567 107.186L128.1 108.854L131.821 105.433L133.446 107.2L129.725 110.621L131.384 112.425L135.391 108.741L137.016 110.508L130.818 116.206Z" fill="#2C4465"/>
<path d="M137.393 110.495L137.067 102.949L129.866 101.255L132.639 98.957L136.986 100.096L136.673 95.6131L139.459 93.3047L139.787 100.695L147.129 102.427L144.343 104.735L139.866 103.572L140.178 108.187L137.393 110.495Z" fill="#2C4465"/>
<path d="M243.073 65.259L241.804 55.9632L238.052 56.4753L237.709 53.9629L248.295 52.5181L248.638 55.0305L244.886 55.5426L246.155 64.8384L243.073 65.259Z" fill="#2C4465"/>
<path d="M256.414 64.2406C255.212 64.3436 254.135 64.1814 253.182 63.7541C252.24 63.3145 251.476 62.6561 250.892 61.7786C250.308 60.9012 249.963 59.8505 249.859 58.6266C249.753 57.3915 249.908 56.298 250.324 55.3461C250.75 54.3821 251.397 53.6084 252.263 53.0252C253.129 52.442 254.163 52.0989 255.364 51.9959C256.566 51.8929 257.637 52.0556 258.579 52.4838C259.532 52.9112 260.3 53.5636 260.884 54.441C261.468 55.3072 261.812 56.3579 261.918 57.593C262.023 58.8169 261.862 59.9109 261.436 60.8749C261.009 61.839 260.364 62.6182 259.498 63.2127C258.643 63.795 257.615 64.1376 256.414 64.2406ZM256.191 61.6468C257.067 61.5717 257.726 61.2042 258.167 60.5443C258.618 59.8722 258.796 58.9804 258.701 57.8687C258.606 56.7571 258.285 55.9137 257.738 55.3385C257.191 54.7632 256.474 54.5136 255.587 54.5897C254.699 54.6657 254.035 55.0337 253.594 55.6936C253.153 56.3535 252.98 57.2393 253.075 58.3509C253.171 59.4625 253.492 60.3116 254.04 60.898C254.587 61.4732 255.304 61.7228 256.191 61.6468Z" fill="#2C4465"/>
<path d="M263.501 63.9378L263.262 52.0225L265.543 51.9766L271.157 58.6946L271.019 51.8666L273.893 51.8089L274.132 63.7242L271.867 63.7697L266.254 57.0516L266.391 63.8797L263.501 63.9378Z" fill="#2C4465"/>
<path d="M275.789 64.1195L276.28 52.2119L284.691 52.5587L284.592 54.9571L279.154 54.7329L279.06 56.9962L284.11 57.2044L284.012 59.6028L278.961 59.3946L278.86 61.8437L284.299 62.0679L284.2 64.4663L275.789 64.1195Z" fill="#2C4465"/>
<path d="M285.148 64.7649L290.26 59.2047L286.374 52.91L289.959 53.2499L292.223 57.1324L295.176 53.7448L298.777 54.0863L293.777 59.5383L297.736 65.9588L294.135 65.6172L291.797 61.6258L288.75 65.1064L285.148 64.7649Z" fill="#2C4465"/>
<path d="M394.395 109.643L400.199 102.271L397.224 99.9287L398.793 97.9365L407.187 104.546L405.618 106.538L402.643 104.196L396.839 111.567L394.395 109.643Z" fill="#2C4465"/>
<path d="M404.535 118.657C403.627 117.864 402.996 116.976 402.642 115.994C402.304 115.01 402.248 114.004 402.473 112.974C402.699 111.944 403.216 110.967 404.024 110.042C404.84 109.108 405.735 108.46 406.709 108.099C407.698 107.737 408.704 107.665 409.725 107.883C410.746 108.102 411.711 108.608 412.619 109.401C413.527 110.194 414.154 111.078 414.5 112.053C414.854 113.036 414.918 114.042 414.692 115.071C414.473 116.093 413.956 117.07 413.141 118.004C412.333 118.929 411.434 119.573 410.444 119.935C409.454 120.298 408.445 120.374 407.416 120.164C406.404 119.953 405.443 119.45 404.535 118.657ZM406.247 116.696C406.909 117.275 407.631 117.493 408.412 117.353C409.209 117.211 409.975 116.72 410.709 115.88C411.443 115.039 411.827 114.223 411.861 113.43C411.895 112.637 411.577 111.947 410.907 111.362C410.236 110.776 409.51 110.554 408.729 110.694C407.948 110.835 407.19 111.325 406.456 112.166C405.722 113.006 405.335 113.827 405.293 114.628C405.259 115.421 405.577 116.111 406.247 116.696Z" fill="#2C4465"/>
<path d="M409.808 123.689L418.219 115.246L419.836 116.857L418.896 125.561L423.716 120.722L425.752 122.751L417.341 131.194L415.736 129.595L416.676 120.891L411.856 125.729L409.808 123.689Z" fill="#2C4465"/>
<path d="M418.518 133.029L427.438 125.125L433.021 131.426L431.225 133.018L427.615 128.944L425.919 130.446L429.271 134.229L427.475 135.821L424.123 132.038L422.288 133.664L425.898 137.738L424.101 139.33L418.518 133.029Z" fill="#2C4465"/>
<path d="M424.138 139.745L431.689 139.558L433.516 132.39L435.762 135.204L434.543 139.53L439.031 139.3L441.288 142.127L433.893 142.319L432.026 149.628L429.769 146.8L431.015 142.345L426.395 142.572L424.138 139.745Z" fill="#2C4465"/>
<defs>
<radialGradient id="paint0_radial_604_4" cx="0" cy="0" r="1" gradientUnits="userSpaceOnUse" gradientTransform="translate(264.477 266.128) rotate(90) scale(199.986)">
<stop stop-color="#207BC1"/>
<stop offset="0.827766" stop-color="#7EC2EC" stop-opacity="0"/>
</radialGradient>
</defs>
</svg>
